<svg width="112" height="112" viewBox="0 0 112 112" fill="none" xmlns="http://www.w3.org/2000/svg">
<rect x="0.5" y="0.5" width="111" height="111" rx="55.5" fill="#084CA6" fill-opacity="0.05"/>
<rect x="0.5" y="0.5" width="111" height="111" rx="55.5" stroke="#257BD2" stroke-dasharray="8 8"/>
<g clip-path="url(#clip0_623_9949)">
<path d="M58.4199 52.293H58.4276" stroke="black" stroke-opacity="0.8" stroke-width="1.5" stroke-linecap="round" stroke-linejoin="round"/>
<path d="M59.9865 49.0234H52.1543C50.8567 49.0234 49.8047 50.1215 49.8047 51.476V59.6512C49.8047 61.0057 50.8567 62.1037 52.1543 62.1037H59.9865C61.2842 62.1037 62.3362 61.0057 62.3362 59.6512V51.476C62.3362 50.1215 61.2842 49.0234 59.9865 49.0234Z" stroke="black" stroke-opacity="0.8" stroke-width="1.5" stroke-linecap="round" stroke-linejoin="round"/>
<path d="M49.8047 58.015L52.9376 54.7449C53.2947 54.3861 53.6999 54.1973 54.1124 54.1973C54.5248 54.1973 54.93 54.3861 55.2872 54.7449L59.2033 58.8325" stroke="black" stroke-opacity="0.8" stroke-width="1.5" stroke-linecap="round" stroke-linejoin="round"/>
<path d="M57.6367 57.1972L58.4199 56.3797C58.7771 56.0209 59.1823 55.832 59.5948 55.832C60.0072 55.832 60.4124 56.0209 60.7696 56.3797L62.336 58.0147" stroke="black" stroke-opacity="0.8" stroke-width="1.5" stroke-linecap="round" stroke-linejoin="round"/>
</g>
<path d="M87 82C84.5277 82 82.111 82.7038 80.0554 84.0224C77.9998 85.3409 76.3976 87.2151 75.4515 89.4078C74.5054 91.6005 74.2579 94.0133 74.7402 96.3411C75.2225 98.6689 76.413 100.807 78.1612 102.485C79.9093 104.164 82.1366 105.306 84.5614 105.769C86.9861 106.232 89.4995 105.995 91.7835 105.087C94.0676 104.178 96.0199 102.64 97.3934 100.667C98.7669 98.6934 99.5 96.3734 99.5 94C99.4959 90.8186 98.1777 87.7686 95.8343 85.519C93.491 83.2694 90.314 82.0039 87 82ZM91.7115 93.4775C91.6331 93.6339 91.5102 93.7659 91.3572 93.8583C91.2041 93.9507 91.027 93.9998 90.8462 94H89.1615C89.0994 94.0004 89.0399 94.024 88.9955 94.0656C88.951 94.1072 88.9251 94.1638 88.9231 94.2234V99.5385C88.9231 100.028 88.7205 100.498 88.3598 100.844C87.9992 101.19 87.51 101.385 87 101.385C86.49 101.385 86.0008 101.19 85.6402 100.844C85.2795 100.498 85.0769 100.028 85.0769 99.5385V94.2308C85.0759 94.1702 85.0506 94.1123 85.0061 94.0693C84.9617 94.0262 84.9016 94.0014 84.8385 94H83.1538C82.9728 94.0001 82.7953 93.9511 82.6419 93.8586C82.4886 93.7662 82.3655 93.634 82.287 93.4774C82.2084 93.3208 82.1775 93.146 82.1978 92.9733C82.2182 92.8005 82.2889 92.6368 82.4019 92.5009L86.2481 87.8855C86.3414 87.782 86.4569 87.6989 86.5866 87.6419C86.7164 87.585 86.8573 87.5555 87 87.5555C87.1427 87.5555 87.2837 87.585 87.4134 87.6419C87.5431 87.6989 87.6586 87.782 87.7519 87.8855L91.5981 92.5009C91.7109 92.6369 91.7814 92.8008 91.8014 92.9735C91.8215 93.1463 91.7903 93.321 91.7115 93.4775Z" fill="#257BD2"/>
<defs>
<clipPath id="clip0_623_9949">
<rect width="18.7972" height="19.6204" fill="white" transform="translate(46.6719 45.752)"/>
</clipPath>
</defs>
</svg>
