<svg width="14" height="15" viewBox="0 0 14 15" fill="none" xmlns="http://www.w3.org/2000/svg">
<path d="M3.41699 0C3.83092 0.000208775 4.16682 0.336065 4.16699 0.75V3.41699L4.16309 3.49316C4.12477 3.87132 3.8052 4.1668 3.41699 4.16699C3.02861 4.16699 2.70922 3.87144 2.6709 3.49316L2.66699 3.41699V2.83398H2.08301C1.7611 2.83416 1.50018 3.09508 1.5 3.41699V5.33301H12V3.41699C11.9998 3.09497 11.7381 2.83398 11.416 2.83398H11.083C10.669 2.83384 10.3332 2.49796 10.333 2.08398C10.333 1.66986 10.6689 1.33413 11.083 1.33398H11.416C12.5665 1.33398 13.4998 2.26656 13.5 3.41699V12.083C13.5 13.2335 12.5674 14.1668 11.417 14.167H2.08301C0.932571 14.1668 0 13.2335 0 12.083V3.41699C0.00017591 2.26666 0.932672 1.33416 2.08301 1.33398H2.66699V0.75C2.66717 0.335936 3.00289 0 3.41699 0ZM1.5 12.083C1.5 12.4051 1.76098 12.6668 2.08301 12.667H11.417C11.739 12.6668 12 12.4051 12 12.083V6.83301H1.5V12.083ZM8.75 0C9.16408 3.29613e-05 9.49982 0.335956 9.5 0.75V3.41699C9.49982 3.83104 9.16408 4.16696 8.75 4.16699C8.33589 4.16699 8.00018 3.83106 8 3.41699V2.83301H5.75C5.33579 2.83301 5 2.49722 5 2.08301C5.00035 1.66909 5.336 1.33301 5.75 1.33301H8V0.75C8.00018 0.335936 8.3359 1.28817e-07 8.75 0Z" fill="#292929"/>
</svg>
