<svg width="15" height="15" viewBox="0 0 15 15" fill="none" xmlns="http://www.w3.org/2000/svg">
<path d="M8.01953 0.00878906C8.25816 0.0490782 8.45614 0.225781 8.51953 0.46582L8.85547 1.74512L10.0186 2.22363L10.8857 1.4834L10.9834 1.41406C11.2233 1.27794 11.5315 1.31499 11.7334 1.5166L13.0674 2.84961C13.297 3.07937 13.3122 3.44722 13.1025 3.69531L12.3643 4.56738L12.8301 5.69238L14.1123 6.01953C14.3892 6.08995 14.5829 6.33929 14.583 6.625V7.94336C14.5829 8.22783 14.3905 8.47621 14.1152 8.54785L12.8252 8.88281L12.3584 10.0107L13.1016 10.8877C13.3118 11.1357 13.2971 11.5034 13.0674 11.7334L11.7334 13.0674C11.5279 13.2726 11.2136 13.3055 10.9727 13.1621L10.874 13.0898L10.8721 13.0879C10.8705 13.0865 10.8679 13.0845 10.8652 13.082C10.859 13.0765 10.8495 13.068 10.8379 13.0576C10.814 13.0363 10.7786 13.0053 10.7363 12.9678C10.6513 12.8924 10.5351 12.7894 10.4102 12.6807C10.2771 12.5648 10.1427 12.4488 10.0273 12.3525L8.88965 12.8242L8.56445 14.1113C8.49422 14.3886 8.24408 14.583 7.95801 14.583H6.625C6.3389 14.5829 6.08861 14.3887 6.01855 14.1113L5.69336 12.8242L4.5918 12.3711L3.68652 13.1094C3.43804 13.3118 3.07633 13.2939 2.84961 13.0674L1.5166 11.7334C1.28267 11.4991 1.27185 11.1231 1.49219 10.876L2.23828 10.0371L1.7666 8.91699L0.459961 8.56152C0.188515 8.48707 0 8.23954 0 7.95801V6.625C0.000149667 6.33476 0.200771 6.08267 0.483398 6.0166L1.74902 5.7207L2.20898 4.59082L1.47363 3.68555C1.27198 3.43699 1.29024 3.07597 1.5166 2.84961L2.84961 1.5166L2.94336 1.43945C3.17538 1.28341 3.49053 1.29898 3.70703 1.49121L4.54785 2.23926L5.66504 1.76855L6.00781 0.46582L6.04297 0.367188C6.14274 0.146754 6.36404 0.000133385 6.6123 0H7.91504L8.01953 0.00878906ZM6.7959 2.38477C6.74655 2.5723 6.61228 2.72643 6.43359 2.80176L4.6709 3.54492C4.4489 3.63843 4.1927 3.59565 4.0127 3.43555L3.31641 2.81641L2.79785 3.33496L3.41211 4.08984C3.55589 4.26681 3.5917 4.5085 3.50586 4.71973L2.78516 6.49121C2.70871 6.67912 2.54619 6.81815 2.34863 6.86426L1.25 7.12012V7.48047L2.39062 7.79199L2.45801 7.81543C2.61189 7.87705 2.73647 7.99788 2.80176 8.15234L3.54492 9.91504C3.63861 10.1373 3.59604 10.3942 3.43555 10.5742L2.81738 11.2666L3.33398 11.7832L4.09082 11.167C4.26845 11.0223 4.51171 10.9872 4.72363 11.0742L6.46094 11.7881L6.52734 11.8203C6.67671 11.9035 6.78661 12.0461 6.8291 12.2139L7.1123 13.333H7.47168L7.75586 12.2139L7.77734 12.1436C7.83828 11.9845 7.96278 11.8561 8.12207 11.79L9.88965 11.0576L9.96484 11.0322C10.1443 10.9835 10.3386 11.0173 10.4922 11.127C10.6688 11.2533 10.984 11.5228 11.2305 11.7373C11.2416 11.747 11.2537 11.757 11.2646 11.7666L11.7754 11.2559L11.1592 10.5283C11.0081 10.3497 10.9691 10.1019 11.0586 9.88574L11.79 8.11816L11.8223 8.05176C11.9048 7.90433 12.0445 7.79513 12.21 7.75195L13.333 7.45898V7.11035L12.2188 6.82812C12.028 6.77939 11.8712 6.64285 11.7959 6.46094L11.0645 4.69434C10.9752 4.47847 11.0134 4.23023 11.1641 4.05176L11.7754 3.32617L11.2578 2.80859L10.541 3.42188C10.3629 3.57411 10.1142 3.61434 9.89746 3.52539L8.09277 2.7832C7.91175 2.70861 7.77533 2.55267 7.72559 2.36328L7.43262 1.25H7.09473L6.7959 2.38477ZM7.29199 4.66699C8.74174 4.66699 9.91699 5.84224 9.91699 7.29199C9.91699 8.74174 8.74174 9.91699 7.29199 9.91699C5.84224 9.91699 4.66699 8.74174 4.66699 7.29199C4.66699 5.84224 5.84224 4.66699 7.29199 4.66699ZM7.29199 5.91699C6.5326 5.91699 5.91699 6.5326 5.91699 7.29199C5.91699 8.05138 6.5326 8.66699 7.29199 8.66699C8.05138 8.66699 8.66699 8.05138 8.66699 7.29199C8.66699 6.5326 8.05138 5.91699 7.29199 5.91699Z" fill="#292929"/>
</svg>
