<svg width="14" height="14" viewBox="0 0 14 14" fill="none" xmlns="http://www.w3.org/2000/svg">
<path d="M0.625 10.667C0.97015 10.667 1.25 10.9468 1.25 11.292C1.25009 11.4797 1.32437 11.6602 1.45703 11.793C1.58977 11.9256 1.77036 11.9999 1.95801 12C2.30305 12 2.58283 12.28 2.58301 12.625C2.58283 12.97 2.30305 13.25 1.95801 13.25C1.43883 13.2499 0.940405 13.0438 0.573242 12.6768C0.206163 12.3096 8.67774e-05 11.8112 0 11.292C0 10.9468 0.279822 10.667 0.625 10.667ZM5.29199 12C5.63699 12.0002 5.91699 12.28 5.91699 12.625C5.91699 12.97 5.63699 13.2498 5.29199 13.25H4.625C4.27982 13.25 4 12.9702 4 12.625C4 12.2798 4.27982 12 4.625 12H5.29199ZM8.625 12C8.97003 12.0002 9.25 12.2799 9.25 12.625C9.25 12.9701 8.97003 13.2498 8.625 13.25H7.95801C7.61295 13.2499 7.33301 12.9701 7.33301 12.625C7.33301 12.2799 7.61295 12.0001 7.95801 12H8.625ZM12.625 10.667C12.97 10.6672 13.25 10.9469 13.25 11.292C13.2499 11.8112 13.0439 12.3096 12.6768 12.6768C12.3096 13.0439 11.8112 13.2499 11.292 13.25C10.9469 13.25 10.6672 12.97 10.667 12.625C10.6672 12.28 10.9469 12 11.292 12C11.4797 11.9999 11.6602 11.9257 11.793 11.793C11.9257 11.6602 11.9999 11.4797 12 11.292C12 10.9469 12.28 10.6672 12.625 10.667ZM0.625 7.33301C0.970043 7.33304 1.24983 7.613 1.25 7.95801V8.625C1.24982 8.97001 0.970042 9.24997 0.625 9.25C0.279931 9.25 0.000176202 8.97003 0 8.625V7.95801C0.000174158 7.61298 0.279929 7.33301 0.625 7.33301ZM12.625 7.33301C12.97 7.33304 13.2498 7.613 13.25 7.95801V8.625C13.2498 8.97001 12.97 9.24997 12.625 9.25C12.2799 9.25 12.0002 8.97003 12 8.625V7.95801C12.0002 7.61298 12.2799 7.33301 12.625 7.33301ZM0.625 4C0.97015 4.00003 1.25 4.27984 1.25 4.625V5.29199C1.24982 5.637 0.970041 5.91696 0.625 5.91699C0.279932 5.91699 0.00017757 5.63702 0 5.29199V4.625C0 4.27982 0.279822 4 0.625 4ZM12.625 4C12.9702 4.00003 13.25 4.27984 13.25 4.625V5.29199C13.2498 5.637 12.97 5.91696 12.625 5.91699C12.2799 5.91699 12.0002 5.63702 12 5.29199V4.625C12 4.27982 12.2798 4 12.625 4ZM1.95801 0C2.30316 3.23393e-05 2.58301 0.279843 2.58301 0.625C2.58301 0.970158 2.30316 1.24997 1.95801 1.25C1.77028 1.25009 1.58979 1.32429 1.45703 1.45703C1.32427 1.58979 1.25009 1.77026 1.25 1.95801C1.25 2.30317 0.97015 2.58298 0.625 2.58301C0.279822 2.58301 0 2.30319 0 1.95801C8.64858e-05 1.43874 0.20606 0.940424 0.573242 0.573242C0.940421 0.206079 1.43876 8.61657e-05 1.95801 0ZM11.292 0C11.8112 0.000102914 12.3096 0.206177 12.6768 0.573242C13.0438 0.940405 13.2499 1.43883 13.25 1.95801C13.25 2.30306 12.97 2.5828 12.625 2.58301C12.28 2.58283 12 2.30308 12 1.95801C11.9999 1.77036 11.9256 1.58977 11.793 1.45703C11.6602 1.32439 11.4796 1.2501 11.292 1.25C10.9468 1.25 10.667 0.970178 10.667 0.625C10.667 0.279823 10.9468 0 11.292 0ZM5.29199 0C5.63699 0.000210512 5.91699 0.279952 5.91699 0.625C5.91699 0.970048 5.63699 1.24979 5.29199 1.25H4.625C4.27982 1.25 4 0.970178 4 0.625C4 0.279823 4.27982 0 4.625 0H5.29199ZM8.625 0C8.97003 0.000176202 9.25 0.279931 9.25 0.625C9.25 0.970069 8.97003 1.24982 8.625 1.25H7.95801C7.61295 1.24986 7.33301 0.970091 7.33301 0.625C7.33301 0.27991 7.61295 0.000141178 7.95801 0H8.625Z" fill="#292929"/>
</svg>
