<svg width="56" height="56" viewBox="0 0 56 56" fill="none" xmlns="http://www.w3.org/2000/svg">
<path d="M0 10C0 4.47715 4.47715 0 10 0H46C51.5229 0 56 4.47715 56 10V46C56 51.5229 51.5228 56 46 56H10C4.47715 56 0 51.5228 0 46V10Z" fill="#E0E7FF"/>
<path d="M33.3333 40V37.3333C33.3333 35.9188 32.7714 34.5623 31.7712 33.5621C30.771 32.5619 29.4144 32 28 32H20C18.5855 32 17.2289 32.5619 16.2287 33.5621C15.2285 34.5623 14.6666 35.9188 14.6666 37.3333V40" stroke="#257BD2" stroke-width="2.66667" stroke-linecap="round" stroke-linejoin="round"/>
<path d="M33.3334 16.1699C34.477 16.4664 35.4899 17.1343 36.2129 18.0687C36.936 19.0031 37.3283 20.1511 37.3283 21.3326C37.3283 22.5141 36.936 23.6621 36.2129 24.5965C35.4899 25.5309 34.477 26.1988 33.3334 26.4953" stroke="#257BD2" stroke-width="2.66667" stroke-linecap="round" stroke-linejoin="round"/>
<path d="M41.3334 40.0005V37.3338C41.3325 36.1521 40.9392 35.0042 40.2152 34.0702C39.4912 33.1363 38.4775 32.4693 37.3334 32.1738" stroke="#257BD2" stroke-width="2.66667" stroke-linecap="round" stroke-linejoin="round"/>
<path d="M24 26.6667C26.9455 26.6667 29.3333 24.2789 29.3333 21.3333C29.3333 18.3878 26.9455 16 24 16C21.0544 16 18.6666 18.3878 18.6666 21.3333C18.6666 24.2789 21.0544 26.6667 24 26.6667Z" stroke="#257BD2" stroke-width="2.66667" stroke-linecap="round" stroke-linejoin="round"/>
</svg>
