<svg width="20" height="20" viewBox="0 0 20 20" fill="none" xmlns="http://www.w3.org/2000/svg">
<path opacity="0.2" d="M13.75 3.75C13.75 4.12084 13.64 4.48335 13.434 4.79169C13.228 5.10004 12.9351 5.34036 12.5925 5.48227C12.2499 5.62419 11.8729 5.66132 11.5092 5.58897C11.1455 5.51663 10.8114 5.33805 10.5492 5.07583C10.287 4.8136 10.1084 4.47951 10.036 4.11579C9.96368 3.75208 10.0008 3.37508 10.1427 3.03247C10.2846 2.68986 10.525 2.39702 10.8333 2.19099C11.1416 1.98497 11.5042 1.875 11.875 1.875C12.3723 1.875 12.8492 2.07254 13.2008 2.42417C13.5525 2.77581 13.75 3.25272 13.75 3.75ZM3.4375 10.3125L5.625 11.25L7.5 6.875L5.3125 5.9375L3.4375 10.3125Z" fill="#257BD2"/>
<path d="M11.8748 6.25C12.3693 6.25 12.8526 6.10338 13.2638 5.82868C13.6749 5.55397 13.9953 5.16352 14.1845 4.70671C14.3738 4.24989 14.4233 3.74723 14.3268 3.26228C14.2303 2.77732 13.9922 2.33187 13.6426 1.98223C13.293 1.6326 12.8475 1.3945 12.3626 1.29804C11.8776 1.20157 11.375 1.25108 10.9181 1.4403C10.4613 1.62952 10.0709 1.94995 9.79617 2.36108C9.52147 2.7722 9.37484 3.25555 9.37484 3.75C9.37484 4.41304 9.63824 5.04893 10.1071 5.51777C10.5759 5.98661 11.2118 6.25 11.8748 6.25ZM11.8748 2.5C12.1221 2.5 12.3637 2.57331 12.5693 2.71066C12.7749 2.84802 12.9351 3.04324 13.0297 3.27165C13.1243 3.50005 13.1491 3.75139 13.1008 3.99386C13.0526 4.23634 12.9335 4.45907 12.7587 4.63388C12.5839 4.8087 12.3612 4.92775 12.1187 4.97598C11.8762 5.02421 11.6249 4.99946 11.3965 4.90485C11.1681 4.81024 10.9729 4.65003 10.8355 4.44446C10.6982 4.2389 10.6248 3.99723 10.6248 3.75C10.6248 3.41848 10.7565 3.10054 10.991 2.86612C11.2254 2.6317 11.5433 2.5 11.8748 2.5ZM15.6248 11.25V18.125C15.6248 18.2908 15.559 18.4497 15.4418 18.5669C15.3246 18.6842 15.1656 18.75 14.9998 18.75C14.8341 18.75 14.6751 18.6842 14.5579 18.5669C14.4407 18.4497 14.3748 18.2908 14.3748 18.125V11.8484C12.3631 11.6727 11.6912 10.6359 11.0936 9.71094C10.8709 9.36797 10.6592 9.04141 10.3803 8.75859L9.33344 11.1656L12.2397 13.2414C12.3204 13.2994 12.386 13.3758 12.4313 13.4642C12.4765 13.5527 12.5 13.6507 12.4998 13.75V18.125C12.4998 18.2908 12.434 18.4497 12.3168 18.5669C12.1996 18.6842 12.0406 18.75 11.8748 18.75C11.7091 18.75 11.5501 18.6842 11.4329 18.5669C11.3157 18.4497 11.2498 18.2908 11.2498 18.125V14.0719L8.8225 12.3375L6.19828 18.3742C6.14971 18.4859 6.06956 18.581 5.96769 18.6478C5.86581 18.7145 5.74665 18.7501 5.62484 18.75C5.53902 18.7502 5.45411 18.7324 5.37562 18.6977C5.22369 18.6316 5.10419 18.5079 5.0434 18.3538C4.9826 18.1997 4.98548 18.0278 5.05141 17.8758L9.54594 7.53906C9.58005 7.46065 9.6299 7.39006 9.69239 7.33169C9.75488 7.27331 9.82869 7.22837 9.90924 7.19967C9.9898 7.17096 10.0754 7.15909 10.1607 7.16479C10.246 7.17049 10.3293 7.19365 10.4053 7.23281C10.6298 7.35 10.8396 7.49346 11.0303 7.66016C11.528 8.09141 11.8514 8.59063 12.1366 9.03125C12.7366 9.95625 13.1702 10.625 14.9959 10.625C15.0783 10.6245 15.16 10.6403 15.2363 10.6715C15.3126 10.7026 15.382 10.7486 15.4404 10.8067C15.4989 10.8648 15.5452 10.9338 15.5769 11.0099C15.6086 11.086 15.6248 11.1676 15.6248 11.25ZM5.62484 11.875C5.74726 11.8751 5.86701 11.8392 5.96923 11.7719C6.07145 11.7045 6.15164 11.6086 6.19984 11.4961L8.07484 7.1211C8.14004 6.96879 8.1421 6.79684 8.08057 6.64302C8.01904 6.4892 7.89896 6.36611 7.74672 6.30078L5.55922 5.36328C5.40692 5.29809 5.23496 5.29603 5.08115 5.35756C4.92733 5.41908 4.80423 5.53916 4.73891 5.69141L2.86391 10.0664C2.79871 10.2187 2.79665 10.3907 2.85818 10.5445C2.91971 10.6983 3.03979 10.8214 3.19203 10.8867L5.37953 11.8242C5.45704 11.8575 5.54048 11.8748 5.62484 11.875ZM4.25844 9.98438L5.64047 6.75781L6.67953 7.20313L5.29672 10.4289L4.25844 9.98438Z" fill="#257BD2"/>
</svg>
