<svg width="20" height="20" viewBox="0 0 20 20" fill="none" xmlns="http://www.w3.org/2000/svg">
<path opacity="0.2" d="M17.5 9.375C17.5005 10.8114 17.0884 12.2178 16.3128 13.4268C15.5373 14.6359 14.4308 15.5968 13.125 16.1953V16.875C13.125 17.0408 13.0592 17.1997 12.9419 17.3169C12.8247 17.4342 12.6658 17.5 12.5 17.5H7.5C7.33424 17.5 7.17527 17.4342 7.05806 17.3169C6.94085 17.1997 6.875 17.0408 6.875 16.875V16.1953C5.5692 15.5968 4.46274 14.6359 3.68717 13.4268C2.9116 12.2178 2.49955 10.8114 2.5 9.375H17.5Z" fill="#257BD2"/>
<path d="M6.38828 4.29688C6.80625 3.77657 6.90938 3.42501 6.86641 3.27032C6.83359 3.15392 6.67812 3.09376 6.67656 3.09376C6.53509 3.04727 6.41486 2.95178 6.33754 2.82451C6.26022 2.69724 6.23088 2.54654 6.25482 2.39956C6.27875 2.25258 6.35437 2.11897 6.46808 2.0228C6.58178 1.92663 6.72608 1.87422 6.875 1.87501C6.93803 1.87508 7.0007 1.88456 7.06094 1.90313C7.13906 1.92735 7.83516 2.16329 8.06016 2.90001C8.25234 3.53048 8.01719 4.26329 7.36172 5.07892C6.94375 5.59923 6.84062 5.95079 6.88359 6.10548C6.91641 6.22188 7.06875 6.28048 7.07031 6.28126C7.21153 6.32767 7.33157 6.4229 7.40891 6.54984C7.48624 6.67678 7.5158 6.82714 7.49228 6.97391C7.46876 7.12068 7.3937 7.25426 7.28057 7.35068C7.16744 7.4471 7.02364 7.50005 6.875 7.50001C6.81197 7.49994 6.7493 7.49046 6.68906 7.47188C6.61094 7.44767 5.91484 7.21173 5.68984 6.47501C5.49766 5.84454 5.73281 5.11173 6.38828 4.29688ZM8.81484 6.47579C9.03984 7.21251 9.73594 7.44845 9.81406 7.47267C9.87434 7.49097 9.93701 7.50019 10 7.50001C10.1486 7.50005 10.2924 7.4471 10.4056 7.35068C10.5187 7.25426 10.5938 7.12068 10.6173 6.97391C10.6408 6.82714 10.6112 6.67678 10.5339 6.54984C10.4566 6.4229 10.3365 6.32767 10.1953 6.28126C10.1953 6.28126 10.0391 6.22188 10.0086 6.10548C9.96562 5.94923 10.0687 5.59923 10.4867 5.07892C11.1422 4.26329 11.3773 3.53048 11.1852 2.90001C10.9602 2.16329 10.2648 1.92735 10.1859 1.90313C10.1257 1.88456 10.063 1.87508 10 1.87501C9.8515 1.87479 9.70778 1.92745 9.59458 2.02356C9.48137 2.11967 9.40609 2.25294 9.38221 2.39951C9.35833 2.54607 9.38742 2.69635 9.46426 2.82342C9.5411 2.95049 9.66068 3.04605 9.80156 3.09298C9.80156 3.09298 9.95781 3.15313 9.99141 3.26954C10.0344 3.42579 9.93125 3.77579 9.51328 4.2961C8.85781 5.11173 8.62266 5.84454 8.81484 6.47501V6.47579ZM11.9398 6.47579C12.1648 7.21251 12.8609 7.44845 12.9391 7.47267C12.9993 7.49097 13.062 7.50019 13.125 7.50001C13.2736 7.50005 13.4174 7.4471 13.5306 7.35068C13.6437 7.25426 13.7188 7.12068 13.7423 6.97391C13.7658 6.82714 13.7362 6.67678 13.6589 6.54984C13.5816 6.4229 13.4615 6.32767 13.3203 6.28126C13.3203 6.28126 13.1641 6.22188 13.1336 6.10548C13.0906 5.94923 13.1937 5.59923 13.6117 5.07892C14.2672 4.26329 14.5023 3.53048 14.3102 2.90001C14.0852 2.16329 13.3898 1.92735 13.3109 1.90313C13.2507 1.88456 13.188 1.87508 13.125 1.87501C12.9765 1.87479 12.8328 1.92745 12.7196 2.02356C12.6064 2.11967 12.5311 2.25294 12.5072 2.39951C12.4833 2.54607 12.5124 2.69635 12.5893 2.82342C12.6661 2.95049 12.7857 3.04605 12.9266 3.09298C12.9266 3.09298 13.0828 3.15313 13.1164 3.26954C13.1594 3.42579 13.0563 3.77579 12.6383 4.2961C11.9828 5.11173 11.7477 5.84454 11.9398 6.47501V6.47579ZM18.125 9.37501C18.1223 10.8614 17.7132 12.3187 16.9421 13.5893C16.171 14.86 15.0672 15.8957 13.75 16.5844V16.875C13.75 17.2065 13.6183 17.5245 13.3839 17.7589C13.1495 17.9933 12.8315 18.125 12.5 18.125H7.5C7.16848 18.125 6.85054 17.9933 6.61612 17.7589C6.3817 17.5245 6.25 17.2065 6.25 16.875V16.5844C4.93283 15.8957 3.82901 14.86 3.0579 13.5893C2.28679 12.3187 1.87775 10.8614 1.875 9.37501C1.875 9.20925 1.94085 9.05028 2.05806 8.93307C2.17527 8.81586 2.33424 8.75001 2.5 8.75001H17.5C17.6658 8.75001 17.8247 8.81586 17.9419 8.93307C18.0592 9.05028 18.125 9.20925 18.125 9.37501ZM16.8461 10H3.15391C3.26635 11.2047 3.6937 12.3586 4.39305 13.3459C5.0924 14.3332 6.03916 15.1192 7.13828 15.625C7.24674 15.6754 7.33848 15.7558 7.40259 15.8568C7.46671 15.9577 7.50051 16.075 7.5 16.1945V16.875H12.5V16.1945C12.5 16.075 12.5343 15.9579 12.5988 15.8572C12.6633 15.7565 12.7554 15.6765 12.8641 15.6266C13.963 15.1203 14.9094 14.334 15.6083 13.3464C16.3073 12.3588 16.7341 11.2047 16.8461 10Z" fill="#257BD2"/>
</svg>
