<svg width="20" height="20" viewBox="0 0 20 20" fill="none" xmlns="http://www.w3.org/2000/svg">
<path opacity="0.2" d="M8.12487 3.125C8.12487 2.75416 8.23484 2.39165 8.44086 2.08331C8.64689 1.77496 8.93973 1.53464 9.28234 1.39273C9.62495 1.25081 10.0019 1.21368 10.3657 1.28603C10.7294 1.35838 11.0635 1.53695 11.3257 1.79918C11.5879 2.0614 11.7665 2.39549 11.8388 2.75921C11.9112 3.12292 11.8741 3.49992 11.7321 3.84253C11.5902 4.18514 11.3499 4.47798 11.0416 4.68401C10.7332 4.89003 10.3707 5 9.99987 5C9.50259 5 9.02567 4.80246 8.67404 4.45083C8.32241 4.0992 8.12487 3.62228 8.12487 3.125ZM16.6007 10.8992L13.06 6.88516C12.8841 6.68558 12.6677 6.52573 12.4253 6.41622C12.1828 6.3067 11.9198 6.25004 11.6538 6.25H8.34596C8.07992 6.25004 7.81693 6.3067 7.57447 6.41622C7.33201 6.52573 7.11563 6.68558 6.93971 6.88516L3.39909 10.8992C3.31188 10.9864 3.24271 11.09 3.19551 11.2039C3.14831 11.3178 3.12402 11.44 3.12402 11.5633C3.12402 11.8124 3.22297 12.0512 3.39909 12.2273C3.57521 12.4035 3.81408 12.5024 4.06315 12.5024C4.31222 12.5024 4.55109 12.4035 4.72721 12.2273L7.49987 10L5.71315 16.7914C5.61227 17.0161 5.60389 17.2715 5.68981 17.5024C5.77573 17.7332 5.94904 17.921 6.17229 18.025C6.39554 18.1291 6.65078 18.1412 6.88283 18.0586C7.11489 17.9759 7.30511 17.8053 7.41237 17.5836L9.99987 13.125L12.5874 17.5836C12.6946 17.8053 12.8849 17.9759 13.1169 18.0586C13.349 18.1412 13.6042 18.1291 13.8274 18.025C14.0507 17.921 14.224 17.7332 14.3099 17.5024C14.3958 17.2715 14.3875 17.0161 14.2866 16.7914L12.4999 10L15.2741 12.2258C15.3613 12.313 15.4648 12.3822 15.5788 12.4294C15.6927 12.4766 15.8148 12.5008 15.9381 12.5008C16.0615 12.5008 16.1836 12.4766 16.2975 12.4294C16.4115 12.3822 16.515 12.313 16.6022 12.2258C16.6894 12.1386 16.7586 12.035 16.8058 11.9211C16.853 11.8072 16.8773 11.685 16.8773 11.5617C16.8773 11.4384 16.853 11.3163 16.8058 11.2023C16.7586 11.0884 16.6894 10.9849 16.6022 10.8977L16.6007 10.8992Z" fill="#257BD2"/>
<path d="M12.5002 3.125C12.5002 2.63055 12.3536 2.1472 12.0788 1.73608C11.8041 1.32495 11.4137 1.00452 10.9569 0.815302C10.5001 0.626083 9.9974 0.576575 9.51245 0.673038C9.02749 0.769501 8.58204 1.0076 8.23241 1.35723C7.88277 1.70687 7.64467 2.15232 7.54821 2.63728C7.45175 3.12223 7.50126 3.62489 7.69047 4.08171C7.87969 4.53852 8.20013 4.92897 8.61125 5.20368C9.02237 5.47838 9.50572 5.625 10.0002 5.625C10.6632 5.625 11.2991 5.36161 11.7679 4.89277C12.2368 4.42393 12.5002 3.78804 12.5002 3.125ZM10.0002 4.375C9.75295 4.375 9.51127 4.30169 9.30571 4.16434C9.10015 4.02699 8.93993 3.83176 8.84532 3.60336C8.75071 3.37495 8.72596 3.12361 8.77419 2.88114C8.82242 2.63866 8.94147 2.41593 9.11629 2.24112C9.29111 2.0663 9.51383 1.94725 9.75631 1.89902C9.99879 1.85079 10.2501 1.87554 10.4785 1.97015C10.7069 2.06476 10.9022 2.22498 11.0395 2.43054C11.1769 2.6361 11.2502 2.87777 11.2502 3.125C11.2502 3.45652 11.1185 3.77446 10.8841 4.00888C10.6496 4.24331 10.3317 4.375 10.0002 4.375ZM17.058 10.4727L13.5291 6.4711C13.2944 6.20514 13.0059 5.99214 12.6826 5.84626C12.3594 5.70039 12.0087 5.62496 11.6541 5.625H8.34627C7.9916 5.62496 7.64099 5.70039 7.31771 5.84626C6.99444 5.99214 6.7059 6.20514 6.47127 6.4711L2.94236 10.4727C2.65578 10.7658 2.49586 11.1597 2.49708 11.5697C2.4983 11.9796 2.66055 12.3726 2.94887 12.664C3.23719 12.9554 3.62847 13.1218 4.03835 13.1274C4.44824 13.1329 4.84389 12.9772 5.14002 12.6938L6.41345 11.6719L5.12127 16.5844C4.95012 16.962 4.93599 17.3921 5.08199 17.7802C5.22799 18.1682 5.52216 18.4824 5.89978 18.6535C6.27741 18.8247 6.70755 18.8388 7.09559 18.6928C7.48363 18.5468 7.79778 18.2526 7.96892 17.875L10.0002 14.3695L12.0314 17.875C12.2102 18.24 12.5242 18.5209 12.9067 18.6582C13.2892 18.7955 13.7101 18.7784 14.0802 18.6105C14.4503 18.4426 14.7404 18.1371 14.8889 17.7588C15.0375 17.3805 15.0328 16.9593 14.876 16.5844L13.5869 11.6719L14.8603 12.6938C15.1565 12.9772 15.5521 13.1329 15.962 13.1274C16.3719 13.1218 16.7632 12.9554 17.0515 12.664C17.3398 12.3726 17.5021 11.9796 17.5033 11.5697C17.5045 11.1597 17.3446 10.7658 17.058 10.4727ZM16.1588 11.7828C16.1297 11.8119 16.0953 11.8349 16.0573 11.8506C16.0194 11.8664 15.9787 11.8745 15.9377 11.8745C15.8966 11.8745 15.8559 11.8664 15.818 11.8506C15.7801 11.8349 15.7456 11.8119 15.7166 11.7828C15.7002 11.7672 15.6838 11.7516 15.6658 11.7375L12.8908 9.5125C12.7884 9.43075 12.6629 9.38326 12.532 9.37674C12.4011 9.37022 12.2715 9.405 12.1615 9.47616C12.0514 9.54733 11.9665 9.65128 11.9188 9.77332C11.8711 9.89536 11.8629 10.0293 11.8955 10.1563L13.683 16.9531C13.6922 16.9894 13.7047 17.0247 13.7205 17.0586C13.7385 17.0959 13.749 17.1364 13.7512 17.1777C13.7535 17.2191 13.7475 17.2605 13.7336 17.2995C13.7197 17.3385 13.6982 17.3744 13.6703 17.405C13.6424 17.4356 13.6088 17.4604 13.5712 17.4779C13.5337 17.4954 13.493 17.5053 13.4517 17.5069C13.4103 17.5086 13.369 17.502 13.3302 17.4876C13.2914 17.4731 13.2558 17.4511 13.2256 17.4228C13.1953 17.3945 13.171 17.3604 13.1541 17.3227C13.1464 17.3058 13.1378 17.2893 13.1283 17.2734L10.5408 12.8125C10.4859 12.7178 10.407 12.6392 10.3121 12.5845C10.2172 12.5299 10.1097 12.5011 10.0002 12.5011C9.89068 12.5011 9.78311 12.5299 9.68823 12.5845C9.59335 12.6392 9.51449 12.7178 9.45955 12.8125L6.87517 17.2695C6.86565 17.2854 6.85704 17.3019 6.84939 17.3188C6.83204 17.356 6.80751 17.3894 6.77721 17.4172C6.74692 17.4449 6.71145 17.4664 6.67283 17.4805C6.61472 17.5018 6.55158 17.5053 6.49144 17.4907C6.4313 17.4761 6.37686 17.4439 6.33501 17.3983C6.29317 17.3527 6.26581 17.2957 6.25641 17.2345C6.24701 17.1733 6.25599 17.1108 6.28221 17.0547C6.29795 17.0208 6.3105 16.9855 6.3197 16.9492L8.10486 10.1563C8.13742 10.0293 8.12926 9.89536 8.08153 9.77332C8.0338 9.65128 7.94892 9.54733 7.83889 9.47616C7.72886 9.405 7.59924 9.37022 7.46836 9.37674C7.33748 9.38326 7.21196 9.43075 7.10955 9.5125L4.33455 11.7375C4.31658 11.7516 4.30017 11.7672 4.28377 11.7828C4.25506 11.8131 4.22059 11.8373 4.18238 11.854C4.14418 11.8708 4.10301 11.8797 4.0613 11.8802C4.01959 11.8808 3.97819 11.873 3.93954 11.8573C3.90089 11.8417 3.86577 11.8184 3.83625 11.7889C3.80673 11.7595 3.78341 11.7244 3.76766 11.6858C3.75191 11.6471 3.74405 11.6058 3.74455 11.564C3.74504 11.5223 3.75389 11.4812 3.77055 11.4429C3.78721 11.4047 3.81137 11.3702 3.84158 11.3414C3.85095 11.332 3.85955 11.3227 3.86814 11.3125L7.40877 7.29766C7.52612 7.16475 7.6704 7.05833 7.83204 6.98546C7.99368 6.91258 8.16896 6.87493 8.34627 6.875H11.6541C11.8314 6.87493 12.0067 6.91258 12.1683 6.98546C12.3299 7.05833 12.4742 7.16475 12.5916 7.29766L16.1322 11.3125C16.1408 11.3227 16.1494 11.332 16.1588 11.3414C16.2172 11.4 16.25 11.4794 16.25 11.5621C16.25 11.6449 16.2172 11.7242 16.1588 11.7828Z" fill="#257BD2"/>
</svg>
