<svg width="20" height="20" viewBox="0 0 20 20" fill="none" xmlns="http://www.w3.org/2000/svg">
<path opacity="0.2" d="M12.5002 12.5L8.53537 16.4648C7.87227 17.1278 6.97302 17.5002 6.03537 17.5002C5.09772 17.5002 4.19846 17.1278 3.53537 16.4648C2.87242 15.8018 2.5 14.9025 2.5 13.9648C2.5 13.0272 2.87242 12.1279 3.53537 11.4648L7.50021 7.5L12.5002 12.5Z" fill="#257BD2"/>
<path d="M16.9085 3.09374C16.1281 2.31339 15.0696 1.875 13.9659 1.875C12.8623 1.875 11.8038 2.31339 11.0234 3.09374L3.09368 11.0226C2.32969 11.8063 1.90521 12.8594 1.91219 13.9538C1.91918 15.0482 2.35708 16.0958 3.13102 16.8697C3.90495 17.6435 4.95261 18.0813 6.04703 18.0881C7.14145 18.095 8.1945 17.6703 8.97806 16.9062L16.9085 8.97733C17.6874 8.19643 18.1249 7.13849 18.1249 6.03553C18.1249 4.93258 17.6874 3.87464 16.9085 3.09374ZM8.09446 16.0226C7.54859 16.5686 6.80819 16.8754 6.03615 16.8755C5.2641 16.8755 4.52364 16.5689 3.97767 16.023C3.43169 15.4772 3.12493 14.7368 3.12485 13.9647C3.12478 13.1927 3.43141 12.4522 3.97728 11.9062L7.49993 8.38358L11.6171 12.5L8.09446 16.0226ZM16.0242 8.09374L12.4999 11.6164L8.38431 7.49999L11.9077 3.97733C12.4558 3.44196 13.1928 3.14422 13.9589 3.1487C14.725 3.15317 15.4585 3.4595 16.0002 4.00124C16.542 4.54298 16.8483 5.27645 16.8528 6.04258C16.8573 6.8087 16.5595 7.5457 16.0242 8.09374ZM14.8187 6.4328C14.8768 6.49085 14.9229 6.55978 14.9543 6.63565C14.9858 6.71152 15.002 6.79285 15.002 6.87499C15.002 6.95712 14.9858 7.03845 14.9543 7.11433C14.9229 7.1902 14.8768 7.25913 14.8187 7.31718L12.9437 9.19218C12.8856 9.25019 12.8167 9.29621 12.7408 9.32758C12.665 9.35896 12.5837 9.3751 12.5016 9.37506C12.4195 9.37502 12.3382 9.35882 12.2624 9.32737C12.1866 9.29593 12.1177 9.24985 12.0597 9.19178C12.0017 9.13372 11.9557 9.06479 11.9243 8.98894C11.8929 8.91309 11.8768 8.8318 11.8768 8.74971C11.8769 8.66763 11.8931 8.58635 11.9245 8.51053C11.9559 8.4347 12.002 8.36582 12.0601 8.3078L13.9351 6.4328C14.0523 6.31568 14.2112 6.24989 14.3769 6.24989C14.5426 6.24989 14.7015 6.31568 14.8187 6.4328Z" fill="#257BD2"/>
</svg>
