<svg width="15" height="14" viewBox="0 0 15 14" fill="none" xmlns="http://www.w3.org/2000/svg">
<path d="M9.39844 5.78711C10.1237 4.99077 11.3762 4.99094 12.1016 5.78711C12.1674 5.85939 12.2627 5.89805 12.3604 5.89355C13.4363 5.8433 14.3225 6.72973 14.2725 7.80566C14.2679 7.90326 14.3068 7.99858 14.3789 8.06445C15.1754 8.78981 15.1754 10.0422 14.3789 10.7676C14.3067 10.8334 14.268 10.9287 14.2725 11.0264C14.3227 12.1024 13.4364 12.9887 12.3604 12.9385C12.2627 12.934 12.1674 12.9727 12.1016 13.0449C11.3762 13.8414 10.1238 13.8414 9.39844 13.0449C9.33257 12.9728 9.23725 12.9339 9.13965 12.9385C8.06368 12.9886 7.17728 12.1024 7.22754 11.0264C7.23201 10.9287 7.19335 10.8334 7.12109 10.7676C6.32491 10.0422 6.3247 8.78973 7.12109 8.06445C7.19342 7.99857 7.23211 7.90339 7.22754 7.80566C7.17748 6.72983 8.06381 5.84346 9.13965 5.89355C9.23738 5.89812 9.33255 5.85945 9.39844 5.78711ZM5.41699 0C7.30382 0.000175676 8.83301 1.53013 8.83301 3.41699C8.83266 5.30356 7.3036 6.83283 5.41699 6.83301C3.254 6.83315 1.5 8.58697 1.5 10.75V11.416C1.5 11.8302 1.16421 12.166 0.75 12.166C0.335908 12.1659 0 11.8301 0 11.416V10.75C0 8.60806 1.24351 6.75598 3.04785 5.87695C2.40252 5.25564 2.00018 4.3835 2 3.41699C2 1.53011 3.53014 0.000142932 5.41699 0ZM10.9932 6.79688C10.8628 6.65406 10.6371 6.65388 10.5068 6.79688C10.1402 7.19929 9.61311 7.41701 9.06934 7.3916C8.87645 7.38295 8.71697 7.54248 8.72559 7.73535C8.751 8.27912 8.53326 8.80626 8.13086 9.17285C7.98782 9.30312 7.98802 9.52878 8.13086 9.65918C8.5332 10.0257 8.7509 10.553 8.72559 11.0967C8.71676 11.2897 8.87633 11.4491 9.06934 11.4404C9.61297 11.415 10.1403 11.6329 10.5068 12.0352C10.6372 12.1783 10.8628 12.1783 10.9932 12.0352C11.3597 11.6328 11.887 11.4151 12.4307 11.4404C12.6238 11.4493 12.7832 11.2898 12.7744 11.0967C12.7491 10.553 12.9668 10.0257 13.3691 9.65918C13.5123 9.52882 13.5123 9.30321 13.3691 9.17285C12.9669 8.80627 12.749 8.27899 12.7744 7.73535C12.7831 7.54237 12.6237 7.38278 12.4307 7.3916C11.887 7.41694 11.3597 7.19923 10.9932 6.79688ZM11.3105 8.15918C11.6034 7.86636 12.0782 7.86644 12.3711 8.15918C12.6637 8.45208 12.6639 8.92692 12.3711 9.21973L10.917 10.6738C10.6241 10.9667 10.1484 10.9667 9.85547 10.6738L9.12891 9.94629C8.83615 9.65339 8.83606 9.17859 9.12891 8.88574C9.42177 8.59309 9.89661 8.59305 10.1895 8.88574L10.3867 9.08301L11.3105 8.15918ZM5.41699 1.5C4.35857 1.50014 3.5 2.35853 3.5 3.41699C3.50035 4.47515 4.35878 5.33287 5.41699 5.33301C6.47517 5.33283 7.33266 4.47513 7.33301 3.41699C7.33301 2.35856 6.47539 1.50018 5.41699 1.5Z" fill="#292929"/>
</svg>
