<svg width="16" height="13" viewBox="0 0 16 13" fill="none" xmlns="http://www.w3.org/2000/svg">
<path d="M11.958 0C13.4078 0 14.583 1.17525 14.583 2.625C14.5829 3.34361 14.2931 3.99381 13.8252 4.46777C15.0696 5.13488 15.9169 6.44746 15.917 7.95801V8.29199C15.9166 8.63664 15.6366 8.91664 15.292 8.91699C14.947 8.91699 14.6674 8.63685 14.667 8.29199V7.95801C14.6668 6.46249 13.4535 5.25018 11.958 5.25C10.5185 5.25017 9.34413 6.3732 9.25781 7.79102C10.0817 8.72407 10.583 9.94939 10.583 11.292V11.958C10.5828 12.3029 10.3029 12.5828 9.95801 12.583C9.6131 12.5828 9.3332 12.3029 9.33301 11.958V11.292C9.33301 9.06006 7.52384 7.25035 5.29199 7.25C3.05984 7.25 1.25 9.05984 1.25 11.292V11.958C1.2498 12.3029 0.969907 12.5828 0.625 12.583C0.279943 12.583 0.000196387 12.303 0 11.958V11.292C0 9.13319 1.29281 7.27627 3.14648 6.45312C2.44487 5.84962 2.0001 4.95603 2 3.95801C2.00016 2.1402 3.47415 0.666016 5.29199 0.666016C7.10953 0.666367 8.58285 2.14042 8.58301 3.95801C8.58291 4.95622 8.13721 5.84962 7.43555 6.45312C7.68782 6.56511 7.92953 6.69628 8.15918 6.84473C8.45957 5.81799 9.16426 4.96424 10.0898 4.46777C9.62223 3.99385 9.33311 3.34336 9.33301 2.625C9.33301 1.17525 10.5083 1.61086e-08 11.958 0ZM5.29199 1.91602C4.16451 1.91602 3.25016 2.83056 3.25 3.95801C3.25018 5.08544 4.16452 5.99902 5.29199 5.99902C6.41917 5.99867 7.33283 5.08522 7.33301 3.95801C7.33285 2.83078 6.41918 1.91637 5.29199 1.91602ZM11.958 1.25C11.1986 1.25 10.583 1.86561 10.583 2.625C10.5832 3.38422 11.1987 4 11.958 4C12.7173 4 13.3328 3.38422 13.333 2.625C13.333 1.86561 12.7174 1.25 11.958 1.25Z" fill="#292929"/>
</svg>
