<svg width="15" height="16" viewBox="0 0 15 16" fill="none" xmlns="http://www.w3.org/2000/svg">
<path d="M7.29199 2.04199C9.10978 2.04217 10.583 3.51616 10.583 5.33398C10.5828 6.33239 10.1375 7.22565 9.43555 7.8291C11.2896 8.65201 12.583 10.5078 12.583 12.667V13.333C12.583 13.6782 12.3032 13.958 11.958 13.958C11.6131 13.9577 11.333 13.678 11.333 13.333V12.667C11.333 10.4349 9.52399 8.62518 7.29199 8.625C5.05999 8.62518 3.25 10.4349 3.25 12.667V13.333C3.25 13.6782 2.97018 13.958 2.625 13.958C2.27997 13.9578 2 13.6781 2 13.333V12.667C2 10.5082 3.29376 8.65223 5.14746 7.8291C4.44564 7.22566 4.00019 6.33211 4 5.33398C4 3.51616 5.4742 2.04217 7.29199 2.04199ZM7.29199 3.29199C6.16456 3.29217 5.25 4.20651 5.25 5.33398C5.25035 6.46116 6.16478 7.37482 7.29199 7.375C8.41921 7.37482 9.33266 6.46116 9.33301 5.33398C9.33301 4.20651 8.41942 3.29217 7.29199 3.29199Z" fill="#333E49"/>
</svg>
