<svg width="1000" height="1000" viewBox="0 0 1000 1000" fill="none" xmlns="http://www.w3.org/2000/svg">
<rect width="1000" height="1000" fill="black"/>
<path d="M483.56 631.078C546.872 631.078 598.198 579.753 598.198 516.44C598.198 453.128 546.872 401.802 483.56 401.802C420.247 401.802 368.922 453.128 368.922 516.44C368.922 579.753 420.247 631.078 483.56 631.078Z" stroke="#8860FF" stroke-width="40" stroke-linecap="round" stroke-linejoin="round"/>
<path d="M204.474 368.655C204.474 253.728 286.565 171.638 417.909 171.638C582.09 171.638 576.508 270.147 664.181 335.819C751.854 401.491 828.362 401.491 828.362 532.836C828.362 680.599 746.272 746.272 598.509 746.272C516.418 746.272 516.418 828.362 401.491 828.362C286.565 828.362 171.638 762.69 171.638 647.763C171.638 549.254 220.892 549.254 220.892 483.582C220.892 434.328 204.474 401.491 204.474 368.655Z" stroke="#8860FF" stroke-width="40" stroke-linecap="round" stroke-linejoin="round"/>
</svg>
