<svg width="1000" height="1000" viewBox="0 0 1000 1000" fill="none" xmlns="http://www.w3.org/2000/svg">
<rect width="1000" height="1000" fill="#0E172B"/>
<rect width="798" height="851" transform="translate(101 75)" fill="#0E172B"/>
<path d="M435.661 517.981L230.176 564.715C222.2 566.561 213.864 564.984 206.969 560.326C200.075 555.668 195.177 548.303 193.335 539.823L175.48 463.588C173.381 454.403 174.573 444.713 178.823 436.416C183.073 428.119 190.074 421.813 198.456 418.733L647.464 261.298" stroke="white" stroke-width="40" stroke-linecap="round" stroke-linejoin="round"/>
<path d="M551.87 491.529L695.909 458.766" stroke="white" stroke-width="40" stroke-linecap="round" stroke-linejoin="round"/>
<path d="M633 819.625L529.759 599.429" stroke="white" stroke-width="40" stroke-linecap="round" stroke-linejoin="round"/>
<path d="M649.126 285.623C644.852 267.379 647.548 248.071 656.62 231.947C665.692 215.822 680.399 204.2 697.505 199.636L733.748 189.991C742.297 187.717 751.343 189.155 758.899 193.988C766.455 198.821 771.903 206.656 774.047 215.77L824.42 430.647C826.563 439.769 825.22 449.425 820.687 457.491C816.154 465.557 808.801 471.373 800.248 473.658L764.005 483.303C746.898 487.861 728.793 484.986 713.672 475.312C698.551 465.637 687.653 449.953 683.374 431.711L649.126 285.623Z" stroke="white" stroke-width="40" stroke-linecap="round" stroke-linejoin="round"/>
<path d="M305.753 381.112L342.794 539.114" stroke="white" stroke-width="40" stroke-linecap="round" stroke-linejoin="round"/>
<path d="M367 819.625L470.241 599.429" stroke="white" stroke-width="40" stroke-linecap="round" stroke-linejoin="round"/>
<path d="M500 606.875C536.727 606.875 566.5 575.125 566.5 535.958C566.5 496.792 536.727 465.042 500 465.042C463.273 465.042 433.5 496.792 433.5 535.958C433.5 575.125 463.273 606.875 500 606.875Z" stroke="white" stroke-width="40" stroke-linecap="round" stroke-linejoin="round"/>
</svg>
